<?xml version="1.0" encoding="UTF-8" standalone="yes"?>
<svg version="1.2" viewBox="0 0 1000 1000" width="1280" height="1280" baseProfile="tiny-ps" xmlns="http://www.w3.org/2000/svg">
  <title>bimi-svg-tiny-12-ps</title>
  <path transform="translate(468,183)" d="m0 0h24l20 4 19 8 11 7 14 11 10 10 10 13 10 17 7 17 5 19 1 7v30l-5 30-6 30-2 15-2 34-3 15-6 12-8 5-9-1-6-4-5-6-5-12-2-12v-30l3-26 4-25 1-10v-10l-2-10-3-6-1-3-5-2-2-1h-11l-10 5-10 10-11 18-9 16-8 10-8 6-9 2-5-3-3-6v-8l10-32v-7l-3-3-6 1-11 7-15 14-13 9-6 2h-8l-5-3-3-4v-13l4-10 7-10 9-10 10-9 24-16 18-11 10-9 4-7v-6l-4-5-9-3h-11l-13 3-17 8-14 10-11 9-10 10-13 17-11 19-12 23-8 11-8 6-4 2h-11l-6-4-4-5-2-6v-17l4-14 7-16 13-22 10-13 12-14 9-9 11-9 15-11 18-10 17-8 21-7z" fill="#FABF3C"/>
  <path transform="translate(298,377)" d="m0 0h32l33 4 29 6 24 7 21 8 20 10 12 8 10 8 12 11 15 16 10 11 11 9 11 7 15 7 18 5 20 3 31 3 18 4 12 5 8 6 5 7 1 3v9l-6 9-8 5-16 4h-26l-23-3-28-6-33-9-15-2h-9l-10 2-9 4-8 6-9 14-6 18-7 24-8 16-8 7-6 3-8 1-8-3-5-6-2-6-1-38-4-8-7-4-4-1h-20l-9 1h-22l-10-3-7-6-2-8 3-7 7-8 15-8 43-15 17-9 10-9 4-8 1-8-2-9-8-11-14-9-18-7-20-5-33-5-37-5-15-4-9-5-5-5-3-6 1-8 6-7 12-6 13-3z" fill="#4CC2C0"/>
  <path transform="translate(616,401)" d="m0 0h10l15 4 17 7 17 8 15 9 12 9 12 11 11 13 9 15 7 16 4 14 2 15v12l-3 19-6 16-9 14-11 12-11 9-16 9-21 9-21 6-16 3-26 2-24-1-25-4-22-6-18-8-12-9-8-11-1-3v-9l4-7 6-4 8-2h15l24 5 27 6 13 2 12 1h14l17-2 16-5 13-7 7-6 7-10 4-9 2-9v-18l-4-14-7-12-11-12-15-11-21-13-9-7-7-6-7-10-3-9v-9l4-8 6-4z" fill="#4173B9"/>
  <path transform="translate(142,636)" d="m0 0h8l1 1v133l5-3 56-56 11-7 9-3h12l12 5 2 2v5l-57 57 2 5 29 29 8 7 17 17 1 6-5 4-7 3h-17l-14-7-34-34-3-2h-5l-9 9-8 7-17 17-9 4-6-1-5-5-1-2v-165l5-12 7-8z" fill="#4F2F8D"/>
  <path transform="translate(800,701)" d="m0 0h20l16 4 14 7 11 9 9 11 7 14 3 11 1 6v77l-4 2h-14l-9-3-4-3h-10l-17 5-17 1-16-3-12-5-11-7-12-12-8-13-5-14-2-13 1-16 3-11 4-10 9-13 9-9 11-7 11-5zm5 32-10 3-8 5-5 4-6 10-3 9v14l4 11 6 8 8 7 9 4 5 1h11l13-4 10-8 7-11 3-12v-7l-3-11-6-10-8-7-8-4-8-2z" fill="#4E2E8D"/>
  <path transform="translate(489,701)" d="m0 0h23l14 4 12 6 9 7 9 9 7 11 5 12 2 8v13l-3 6-3 3-7 2-90 1-1 2 5 10 8 7 12 5h18l15-5 6 2 4 5 1 10-3 9-5 5-7 5-9 3-15 1-14-2-14-5-12-8-9-8-9-13-5-11-3-11-1-8v-9l3-16 5-12 6-10 9-10 10-8 12-6 9-3zm6 32-11 3-10 6-7 8-3 5v5l14 1h24l34-1-1-6-4-6-4-5-11-7-11-3z" fill="#4F2F8D"/>
  <path transform="translate(276,701)" d="m0 0 9 1 9 5 8 9 4 10 1 7 1 43 4 13 6 8 9 7 8 3 6 1h8l13-4 8-6 6-7 4-10 2-18v-28l2-12 5-10 7-7 8-4 8-1 3 3v72l-3 16-5 12-7 11-9 10-13 9-11 5-14 3h-16l-17-4-14-7-11-9-8-9-8-15-4-14-1-7v-73z" fill="#4F2F8D"/>
  <path transform="translate(648,700)" d="m0 0h14l14 3 12 5 11 7 12 12 7 11 5 12 2 9 1 10v68l-2 4h-7l-10-5-8-8-5-12-1-7-1-43-3-10-6-10-7-6-8-4-8-2h-8l-12 3-9 6-7 8-4 10-2 15v30l-2 13-5 10-9 8-8 4h-7l-2-2v-75l3-15 5-11 7-11 8-9 11-8 12-6 11-3z" fill="#4F2F8D"/>
  <path transform="translate(269,490)" d="m0 0h8l5 5 3 10 2 30 3 12 5 10 6 8 12 9 16 7 27 8 12 6 4 5-1 7-5 6-10 5-16 4-9 1h-21l-18-3-15-5-13-7-10-8-8-9-6-10-4-12-1-6v-18l3-15 6-15 7-11 6-7 9-6z" fill="#7554A3"/>
  <path transform="translate(576,158)" d="m0 0h11l9 3 9 7 6 10 2 8-1 11-4 8-8 7-5 2-9 1-12-3-10-7-6-9-2-5v-14l5-10 7-6z" fill="#FABF3C"/>
  <path transform="translate(498,370)" d="m0 0 11 1 8 4 7 7 4 8 1 4v14l-5 10-7 6-10 3-10-1-10-5-5-4-5-9-2-7v-7l3-10 9-10 6-3z" fill="#4CC2C0"/>
  <path transform="translate(299,441)" d="m0 0h14l8 4 7 8 2 5v13l-4 9-7 8-8 4-3 1h-10l-8-3-6-4-4-5-3-6v-14l4-8 5-5 7-5z" fill="#7554A3"/>
  <path transform="translate(622,341)" d="m0 0h8l10 4 7 7 4 11v8l-3 9-6 7-10 4h-8l-8-3-8-7-4-7-1-4v-10l4-10 7-6z" fill="#4173B9"/>
</svg>